<?xml version="1.0" encoding="UTF-8"?>
<svg version="1.1" xmlns="http://www.w3.org/2000/svg" width="300" height="300">
<path d="M0 0 C0.71542969 0.60199219 1.43085938 1.20398438 2.16796875 1.82421875 C3.17859375 2.58734375 4.18921875 3.35046875 5.23046875 4.13671875 C25.01677409 22.23908321 35.84860533 48.60903691 37.3515625 75.0546875 C37.89502683 101.30081789 29.32569747 127.54113666 11.16796875 146.82421875 C10.32621094 147.74460938 9.48445312 148.665 8.6171875 149.61328125 C-9.5798119 168.73198106 -34.39631603 179.75908884 -60.69921875 181.0078125 C-90.48964717 181.72747498 -116.51599439 170.77820049 -138.13671875 150.57421875 C-157.86171099 130.44900927 -167.24558714 104.08134049 -167.1328125 76.17431641 C-166.64374377 50.47637447 -156.32750195 28.20182201 -139.83203125 8.82421875 C-139.2596875 8.14746094 -138.68734375 7.47070312 -138.09765625 6.7734375 C-102.51357679 -31.65369985 -39.22562264 -32.7399871 0 0 Z M-81.83203125 -4.17578125 C-82.52683594 -3.75167969 -83.22164063 -3.32757813 -83.9375 -2.890625 C-91.58351271 2.25931602 -96.00386863 9.41718901 -98.375 18.25 C-99.12101499 22.4519135 -99.07610824 26.57547111 -98.83203125 30.82421875 C-100.04890625 30.32921875 -101.26578125 29.83421875 -102.51953125 29.32421875 C-111.35505734 26.42527848 -120.62480116 26.79555616 -129.19921875 30.3828125 C-138.58284479 35.52013892 -144.08367778 42.92081992 -147.83203125 52.82421875 C-150.22939128 62.8280174 -148.52308234 72.60242223 -143.25390625 81.484375 C-137.16963301 89.69266254 -130.31411244 93.40914323 -120.83203125 96.82421875 C-121.23035156 97.35789062 -121.62867187 97.8915625 -122.0390625 98.44140625 C-127.72993029 106.44462178 -131.18083135 114.88073896 -129.83203125 124.82421875 C-127.80092754 135.57552774 -123.32821583 142.74233266 -114.71484375 149.48046875 C-106.66722925 154.86642087 -98.33125832 155.6797047 -88.83203125 154.82421875 C-80.1280192 153.09732421 -73.59482285 148.5117636 -67.83203125 141.82421875 C-66.55122471 139.17161258 -66.55122471 139.17161258 -65.83203125 136.82421875 C-63.38310374 139.2051205 -61.09285234 141.44747718 -59.14453125 144.26171875 C-53.69364125 150.30189416 -45.64853498 154.32814771 -37.5703125 155.16015625 C-25.31307532 155.2999195 -16.95499497 152.93891682 -8 144.33984375 C-0.42461825 135.54967105 0.86389439 125.95789766 0.3515625 114.7890625 C-0.33769081 107.41258558 -4.38574863 101.50557988 -8.83203125 95.82421875 C-8.02765625 95.76234375 -7.22328125 95.70046875 -6.39453125 95.63671875 C2.13404152 93.69160566 8.7052734 88.53517707 14.16796875 81.82421875 C19.98903751 72.55425087 20.75510825 61.4768595 18.5546875 50.8671875 C15.33483764 41.8601185 9.35183245 35.6440026 0.91796875 31.32421875 C-9.06548496 26.6687222 -18.62594014 26.62215007 -29.06640625 30.16796875 C-29.6490625 30.38453125 -30.23171875 30.60109375 -30.83203125 30.82421875 C-30.33703125 29.83421875 -30.33703125 29.83421875 -29.83203125 28.82421875 C-29.75003001 18.31165972 -32.50929753 9.92812635 -38.99609375 1.6796875 C-45.25205801 -4.64282957 -53.73833879 -8.35849172 -62.59179688 -8.55615234 C-69.7907381 -8.53731591 -75.64395973 -8.15648457 -81.83203125 -4.17578125 Z " fill="#008000" transform="translate(214.83203125,69.17578125)"/>
<path d="M0 0 C4.00521387 2.88747977 7.46370991 6.48991981 9.6875 10.9375 C10.50860023 17.42553788 9.48636279 22.57883924 5.6875 27.9375 C2.52338187 31.00573577 -0.43452227 31.18300511 -4.6875 31.375 C-10.20378562 31.24082008 -14.30675008 29.94324992 -18.3125 25.9375 C-20.31208364 25.89669217 -22.31295254 25.89495644 -24.3125 25.9375 C-26.7538069 31.75550584 -27.94370081 36.83960805 -28.3125 43.125 C-28.38855469 43.90552734 -28.46460938 44.68605469 -28.54296875 45.49023438 C-28.81077031 49.75696456 -28.79564713 51.33829879 -26.01953125 54.78125 C-25.12621094 55.4928125 -24.23289063 56.204375 -23.3125 56.9375 C-21.3125 58.9375 -19.3125 60.9375 -17.3125 62.9375 C-16.88839844 62.35742188 -16.46429688 61.77734375 -16.02734375 61.1796875 C-9.62849598 52.65726607 -3.77502361 46.91957195 6.6875 43.9375 C10.5991769 43.48861904 12.8149711 43.58055636 16.4375 45.0625 C19.30862941 47.45510784 20.4444949 49.41565221 21.6875 52.9375 C21.61526805 56.54909747 21.12872671 58.33285598 19 61.25 C16.08285598 63.37872671 14.29909747 63.86526805 10.6875 63.9375 C9.718125 63.4425 8.74875 62.9475 7.75 62.4375 C3.7903724 60.49809056 1.89858095 60.73433401 -2.3125 61.9375 C-4.98279197 63.38198984 -6.21960771 64.58299617 -8.3125 66.9375 C-8.86802039 69.88490009 -8.86802039 69.88490009 -7.3125 72.9375 C-5.66817711 74.91766602 -3.91981282 76.77857259 -2.16796875 78.6640625 C1.91842691 83.67097255 4.363765 89.42855375 5.1875 95.8125 C4.43021586 100.54552588 2.32629181 103.86256374 -1.3125 106.9375 C-4.25434741 107.19917679 -6.9798721 107.28623921 -9.91796875 107.23046875 C-11.17677605 107.22410149 -11.17677605 107.22410149 -12.46101379 107.21760559 C-15.14100245 107.20081464 -17.8202387 107.1631623 -20.5 107.125 C-22.31704643 107.10995367 -24.13410465 107.09626518 -25.95117188 107.08398438 C-30.40523776 107.05090982 -34.85874132 106.99912513 -39.3125 106.9375 C-39.30583817 106.32806549 -39.29917633 105.71863098 -39.29231262 105.09072876 C-39.22609421 98.76464091 -39.18075579 92.43865102 -39.14770508 86.11230469 C-39.132591 83.7493083 -39.11209924 81.38634009 -39.08618164 79.0234375 C-39.04991371 75.63274191 -39.03280001 72.24241621 -39.01953125 68.8515625 C-39.00404739 67.79006989 -38.98856354 66.72857727 -38.97261047 65.63491821 C-38.97227058 64.16361954 -38.97227058 64.16361954 -38.97192383 62.66259766 C-38.96526199 61.79655914 -38.95860016 60.93052063 -38.95173645 60.03823853 C-39.13031441 58.99837296 -39.13031441 58.99837296 -39.3125 57.9375 C-43.32832372 55.26028419 -46.59029302 55.11414083 -51.3125 55.9375 C-53.6934445 57.36094639 -55.3019528 58.97482297 -57.3125 60.9375 C-60.91822704 62.13940901 -63.5227435 62.26420315 -67.3125 61.9375 C-70.06579021 60.14187595 -71.83877461 58.88495078 -73.3125 55.9375 C-73.70289346 51.87740798 -73.5325661 49.41430989 -71.8125 45.6875 C-68.08340759 41.58549835 -64.51966223 40.11567568 -58.9921875 39.80859375 C-51.85334659 40.18734254 -45.72504223 42.95159116 -39.3125 45.9375 C-39.33570313 44.98230469 -39.35890625 44.02710938 -39.3828125 43.04296875 C-39.56700688 29.8467574 -39.04640134 16.20870396 -29.45703125 5.953125 C-21.14163333 -0.75230566 -10.27531539 -3.29585588 0 0 Z M-9.3125 7.9375 C-9.3125 10.2475 -9.3125 12.5575 -9.3125 14.9375 C-11.2925 14.9375 -13.2725 14.9375 -15.3125 14.9375 C-15.3125 15.5975 -15.3125 16.2575 -15.3125 16.9375 C-13.3325 16.9375 -11.3525 16.9375 -9.3125 16.9375 C-9.3125 19.2475 -9.3125 21.5575 -9.3125 23.9375 C-8.6525 23.6075 -7.9925 23.2775 -7.3125 22.9375 C-7.3125 20.9575 -7.3125 18.9775 -7.3125 16.9375 C-5.0025 16.9375 -2.6925 16.9375 -0.3125 16.9375 C-0.3125 16.2775 -0.3125 15.6175 -0.3125 14.9375 C-2.6225 14.9375 -4.9325 14.9375 -7.3125 14.9375 C-7.3125 12.6275 -7.3125 10.3175 -7.3125 7.9375 C-7.9725 7.9375 -8.6325 7.9375 -9.3125 7.9375 Z M-28.3125 63.9375 C-28.6425 75.4875 -28.9725 87.0375 -29.3125 98.9375 C-22.85787041 95.24914023 -20.16475162 93.64200323 -17 87.3125 C-15.98617354 82.33553375 -15.95778792 77.85724389 -17.3125 72.9375 C-20.27048022 68.58570712 -23.63886713 66.27431644 -28.3125 63.9375 Z M-10.3125 80.9375 C-10.44527344 81.81792969 -10.57804687 82.69835937 -10.71484375 83.60546875 C-10.97974609 85.34763672 -10.97974609 85.34763672 -11.25 87.125 C-11.42402344 88.27355469 -11.59804687 89.42210937 -11.77734375 90.60546875 C-12.22629313 93.40075212 -12.73332162 96.16683586 -13.3125 98.9375 C-8.83366304 98.49046014 -8.83366304 98.49046014 -5.3125 95.9375 C-4.65789146 89.50051598 -5.74766513 86.28475231 -9.3125 80.9375 C-9.6425 80.9375 -9.9725 80.9375 -10.3125 80.9375 Z " fill="#008000" transform="translate(168.3125,92.0625)"/>
<path d="M0 0 C1.65 0.99 3.3 1.98 5 3 C4.67 3.61875 4.34 4.2375 4 4.875 C2.85806765 6.91018344 2.85806765 6.91018344 3 9 C4.61400692 10.59671399 6.2913834 12.12996047 8 13.625 C8.928125 14.44226563 9.85625 15.25953125 10.8125 16.1015625 C11.8953125 17.04128906 11.8953125 17.04128906 13 18 C12.75 19.875 12.75 19.875 12 22 C10.68 22.66 9.36 23.32 8 24 C4.37 21.03 0.74 18.06 -3 15 C-3.99 15.66 -4.98 16.32 -6 17 C-4.2431893 21.06652629 -1.63709461 23.33202078 1.63671875 26.21875 C3 28 3 28 2.95703125 30.09375 C2 32 2 32 -2 34 C-4.31 31.69 -6.62 29.38 -9 27 C-9.37125 28.3303125 -9.37125 28.3303125 -9.75 29.6875 C-11.03934768 33.10427135 -12.59980129 35.2797748 -15 38 C-14.01 39.65 -13.02 41.3 -12 43 C-13.25 44.5625 -13.25 44.5625 -15 46 C-17.9442374 45.80371751 -18.89445803 45.11347907 -20.921875 42.93359375 C-21.52515625 42.10988281 -22.1284375 41.28617188 -22.75 40.4375 C-23.36359375 39.61121094 -23.9771875 38.78492188 -24.609375 37.93359375 C-25.29773438 36.97646484 -25.29773438 36.97646484 -26 36 C-27.0725 36.495 -28.145 36.99 -29.25 37.5 C-32.25416808 38.88653911 -33.45934895 39 -37 39 C-37.495 39.99 -37.495 39.99 -38 41 C-37.26394531 40.82082031 -36.52789062 40.64164063 -35.76953125 40.45703125 C-27.8546792 38.73186535 -27.8546792 38.73186535 -23.8125 40 C-22 42 -22 42 -21.375 44.875 C-22.32103696 49.6051848 -25.0526531 51.68082952 -28.9375 54.3125 C-31.77768933 55.25922978 -34.0285159 55.31611533 -37 55 C-38.875 53.5 -38.875 53.5 -40 52 C-39.67 51.01 -39.34 50.02 -39 49 C-35.846632 48.29925156 -33.27275026 48 -30 48 C-29.505 47.01 -29.505 47.01 -29 46 C-35.435 46.495 -35.435 46.495 -42 47 C-41.67 47.66 -41.34 48.32 -41 49 C-40.61517943 53.07909806 -40.55878143 55.29089873 -42.75 58.8125 C-46.10666573 62.07592502 -47.78385981 62.91313284 -52.5 63.25 C-55.72858885 63.01938651 -57.39663201 62.8319997 -60 61 C-60.66 60.01 -61.32 59.02 -62 58 C-62 60.64 -62 63.28 -62 66 C-65.465 66.495 -65.465 66.495 -69 67 C-69 64.36 -69 61.72 -69 59 C-70.98 59 -72.96 59 -75 59 C-75 61.97 -75 64.94 -75 68 C-76.98 68 -78.96 68 -81 68 C-83.29612756 53.40318907 -83.29612756 53.40318907 -83 46 C-80.03 45.505 -80.03 45.505 -77 45 C-76.67 47.97 -76.34 50.94 -76 54 C-73.03 53.505 -73.03 53.505 -70 53 C-70.185625 51.700625 -70.37125 50.40125 -70.5625 49.0625 C-70.87890625 46.84765625 -70.87890625 46.84765625 -71 45 C-70 44 -70 44 -67.0625 43.9375 C-65.5465625 43.9684375 -65.5465625 43.9684375 -64 44 C-61.71512812 44.20201441 -61.71512812 44.20201441 -59.375 42 C-55.05481019 39.43988752 -52.93660936 39.58861589 -48 40 C-47.01 40.495 -47.01 40.495 -46 41 C-45.443125 40.071875 -44.88625 39.14375 -44.3125 38.1875 C-41.03136843 33.66485919 -38.67013636 32.30117213 -33.1875 31.3125 C-32.135625 31.209375 -31.08375 31.10625 -30 31 C-30 30.01 -30 29.02 -30 28 C-26.0292406 24.03931867 -21.44305768 21.36076442 -16 20 C-16 19.01 -16 18.02 -16 17 C-14.39903682 15.63747815 -12.79194624 14.2815611 -11.15625 12.9609375 C-6.92629764 9.114133 -3.52158447 4.4878242 0 0 Z M-19 27 C-19.99 27.99 -20.98 28.98 -22 30 C-21.01 30.99 -20.02 31.98 -19 33 C-18.01 31.68 -17.02 30.36 -16 29 C-16.99 28.34 -17.98 27.68 -19 27 Z M-56 46 C-56.87754191 48.20438833 -56.87754191 48.20438833 -57 51 C-55.16682624 54.29248108 -55.16682624 54.29248108 -53 57 C-51.35 56.67 -49.7 56.34 -48 56 C-48.58174845 50.6913151 -48.58174845 50.6913151 -51 46 C-53.58380177 45.74969023 -53.58380177 45.74969023 -56 46 Z " fill="#008000" transform="translate(240,213)"/>
<path d="M0 0 C3.30058186 2.07245838 4.77775272 3.54624514 6.5 7.0625 C8.20951679 10.41030372 9.6730615 11.38148938 13 13 C12.37240135 15.92879371 11.41377341 18.36095629 10 21 C11.32 21.66 12.64 22.32 14 23 C15.32 21.35 16.64 19.7 18 18 C20.475 18.99 20.475 18.99 23 20 C23 24.12207122 22.9018058 24.62943781 20.59375 27.671875 C20.09746094 28.33574219 19.60117188 28.99960938 19.08984375 29.68359375 C18.56519531 30.36550781 18.04054687 31.04742187 17.5 31.75 C16.97535156 32.44738281 16.45070312 33.14476562 15.91015625 33.86328125 C14.61526573 35.58195413 13.30873502 37.29184585 12 39 C10.35 38.34 8.7 37.68 7 37 C7 33.20442119 7.50178941 31.37097383 9 28 C8.01 27.34 7.02 26.68 6 26 C4.68 27.65 3.36 29.3 2 31 C-0.16874252 30.49396008 -1.99967627 30.00016187 -4 29 C-3.39305845 25.84669446 -2.3583335 23.81111133 -0.4375 21.25 C0.01753906 20.63640625 0.47257812 20.0228125 0.94140625 19.390625 C1.29074219 18.93171875 1.64007813 18.4728125 2 18 C1.5359375 17.13375 1.5359375 17.13375 1.0625 16.25 C-0.45462627 13.03726202 -1 10.55721585 -1 7 C-4.15473719 7.35052635 -5.8233534 7.86519076 -8.375 9.8125 C-10.27515249 11.85148783 -10.27515249 11.85148783 -9.75 14.25 C-9.5025 14.8275 -9.255 15.405 -9 16 C-8.4225 15.7525 -7.845 15.505 -7.25 15.25 C-6.13625 15.12625 -6.13625 15.12625 -5 15 C-2.75 16.9375 -2.75 16.9375 -1 19 C-2 22 -2 22 -4 23 C-7.81166103 23.42351789 -9.5055372 23.32589594 -12.75 21.1875 C-15.55912961 18.45640177 -16.87603658 16.70245936 -17.5625 12.8125 C-16.77349718 7.46481421 -13.98651742 4.52466479 -10 1 C-6.29044684 -1.23986353 -4.20898345 -1.2025667 0 0 Z " fill="#008000" transform="translate(68,222)"/>
<path d="M0 0 C3.52069985 0.58678331 5.71299843 1.35649921 9 3 C9 6.63 9 10.26 9 14 C11.31 11.36 13.62 8.72 16 6 C19.4375 6.8125 19.4375 6.8125 23 8 C24.14680101 11.44040303 23.87124738 12.00270384 22.56640625 15.23046875 C22.0878418 16.43413086 22.0878418 16.43413086 21.59960938 17.66210938 C21.25736328 18.49548828 20.91511719 19.32886719 20.5625 20.1875 C20.22412109 21.03248047 19.88574219 21.87746094 19.53710938 22.74804688 C18.69974448 24.83556216 17.85379803 26.91916409 17 29 C14.69 28.67 12.38 28.34 10 28 C10.33 25.69 10.66 23.38 11 21 C9.68 22.65 8.36 24.3 7 26 C5.35 25.67 3.7 25.34 2 25 C1.67 23.02 1.34 21.04 1 19 C0.34 20.32 -0.32 21.64 -1 23 C-2.98 22.34 -4.96 21.68 -7 21 C-6.26951699 16.31196344 -4.63363115 12.09114445 -2.9375 7.6875 C-2.51500977 6.57665039 -2.51500977 6.57665039 -2.08398438 5.44335938 C-1.39281425 3.62757345 -0.69688311 1.81360101 0 0 Z " fill="#008000" transform="translate(97,247)"/>
<path d="M0 0 C0.99 2.31 1.98 4.62 3 7 C0.69 9.64 -1.62 12.28 -4 15 C1.94 14.505 1.94 14.505 8 14 C11 19 11 19 10.6171875 21.04296875 C8.2569031 23.89925494 5.31542802 25.53534712 2.125 27.3125 C1.18720703 27.8703418 1.18720703 27.8703418 0.23046875 28.43945312 C-4.39731559 31.06643007 -4.39731559 31.06643007 -7.4453125 30.73046875 C-7.95835937 30.48941406 -8.47140625 30.24835938 -9 30 C-9.33 28.35 -9.66 26.7 -10 25 C-9.01 24.34 -8.02 23.68 -7 23 C-8.98 23 -10.96 23 -13 23 C-14.1875 20.75 -14.1875 20.75 -15 18 C-13.625 15.6875 -13.625 15.6875 -12 14 C-13.65 14.66 -15.3 15.32 -17 16 C-18.5625 14.1875 -18.5625 14.1875 -20 12 C-18.57243026 7.71729078 -15.39912709 6.48947866 -11.6875 4.3125 C-10.67139648 3.68891602 -10.67139648 3.68891602 -9.63476562 3.05273438 C-8.64573242 2.46395508 -8.64573242 2.46395508 -7.63671875 1.86328125 C-7.03561279 1.50532471 -6.43450684 1.14736816 -5.81518555 0.77856445 C-4 0 -4 0 0 0 Z " fill="#008000" transform="translate(260,72)"/>
<path d="M0 0 C1.63974986 0.05386382 3.2772087 0.18121456 4.91015625 0.33984375 C5.89951172 0.43330078 6.88886719 0.52675781 7.90820312 0.62304688 C8.94912109 0.72681641 9.99003906 0.83058594 11.0625 0.9375 C12.62967773 1.08735352 12.62967773 1.08735352 14.22851562 1.24023438 C16.81951329 1.48868621 19.40992248 1.74215994 22 2 C24.05041963 6.34206511 24.05041963 6.34206511 23.83618164 9.13769531 C22.79586462 11.45464077 21.68947192 12.33684335 19.62109375 13.796875 C19.01450928 14.23354492 18.4079248 14.67021484 17.78295898 15.12011719 C17.00895752 15.65797852 16.23495605 16.19583984 15.4375 16.75 C12.983125 18.4825 10.52875 20.215 8 22 C14.27 21.34 20.54 20.68 27 20 C27.33 22.31 27.66 24.62 28 27 C21.07511433 28.90094901 14.10377673 29.98208077 7 31 C5.29915181 25.67067568 4.47986031 20.56890517 4 15 C4.66 14.67 5.32 14.34 6 14 C5.67 12.35 5.34 10.7 5 9 C3.68 8.67 2.36 8.34 1 8 C0.34 5.69 -0.32 3.38 -1 1 C-0.67 0.67 -0.34 0.34 0 0 Z M11 8 C11 8.66 11 9.32 11 10 C11.66 9.67 12.32 9.34 13 9 C12.34 8.67 11.68 8.34 11 8 Z " fill="#008000" transform="translate(254,104)"/>
<path d="M0 0 C3.28515625 -0.25 3.28515625 -0.25 7 0 C8.99609375 1.75 8.99609375 1.75 10.4375 4 C11.17806641 5.11375 11.17806641 5.11375 11.93359375 6.25 C12.28550781 6.8275 12.63742188 7.405 13 8 C13.33 5.36 13.66 2.72 14 0 C16.31 0 18.62 0 21 0 C22.32719886 6.96779403 22.08825381 13.92988911 22 21 C15.55908096 21.42888403 15.55908096 21.42888403 13.00390625 19.46875 C12.52824219 18.8190625 12.05257812 18.169375 11.5625 17.5 C11.06878906 16.8503125 10.57507813 16.200625 10.06640625 15.53125 C9.71449219 15.0259375 9.36257812 14.520625 9 14 C8.67 16.64 8.34 19.28 8 22 C5.69 22 3.38 22 1 22 C0.16788724 16.96145894 -0.1078534 12.1874338 -0.0625 7.0625 C-0.05798828 6.37865234 -0.05347656 5.69480469 -0.04882812 4.99023438 C-0.0371956 3.32678396 -0.01926694 1.6633795 0 0 Z " fill="#008000" transform="translate(127,16)"/>
<path d="M0 0 C4.55564061 1.58532809 8.31475769 3.99003081 12.3125 6.625 C12.95767578 7.04523438 13.60285156 7.46546875 14.26757812 7.8984375 C15.84760724 8.92838241 17.42416047 9.96365628 19 11 C17.92598892 13.91517292 17.22189824 15.77810176 15 18 C12.3984375 18.1953125 12.3984375 18.1953125 9.375 18.125 C7.87066406 18.09792969 7.87066406 18.09792969 6.3359375 18.0703125 C5.56507812 18.04710938 4.79421875 18.02390625 4 18 C6.31 19.32 8.62 20.64 11 22 C10.125 26.75 10.125 26.75 9 29 C4.44435939 27.41467191 0.68524231 25.00996919 -3.3125 22.375 C-3.95767578 21.95476562 -4.60285156 21.53453125 -5.26757812 21.1015625 C-6.84760724 20.07161759 -8.42416047 19.03634372 -10 18 C-8.125 13.125 -8.125 13.125 -7 12 C-5.15108054 11.76636119 -3.29511969 11.58696365 -1.4375 11.4375 C-0.42558594 11.35371094 0.58632813 11.26992187 1.62890625 11.18359375 C2.41136719 11.12300781 3.19382812 11.06242187 4 11 C2.02 9.68 0.04 8.36 -2 7 C-1.125 2.25 -1.125 2.25 0 0 Z " fill="#008000" transform="translate(42,69)"/>
<path d="M0 0 C0.99 0.33 1.98 0.66 3 1 C3.61875 0.79375 4.2375 0.5875 4.875 0.375 C7 0 7 0 9.6875 0.9375 C12.41546268 3.3705478 12.83122072 5.12030921 13.0859375 8.7265625 C12.93915855 12.60953285 12.04467 16.27026908 11 20 C8.27052356 19.69003741 5.54144015 19.37712025 2.8125 19.0625 C2.04357422 18.97548828 1.27464844 18.88847656 0.48242188 18.79882812 C-3.38772828 18.35035579 -7.19186624 17.8470999 -11 17 C-10.77093046 14.91426154 -10.51590108 12.83136359 -10.25 10.75 C-10.11078125 9.58984375 -9.9715625 8.4296875 -9.828125 7.234375 C-8.41024149 1.69660354 -5.73434396 -0.7351723 0 0 Z M-4 7 C-4 8.32 -4 9.64 -4 11 C-3.01 11 -2.02 11 -1 11 C-1 9.68 -1 8.36 -1 7 C-1.99 7 -2.98 7 -4 7 Z M5 7 C4.34 8.65 3.68 10.3 3 12 C4.32 12 5.64 12 7 12 C6.67 10.35 6.34 8.7 6 7 C5.67 7 5.34 7 5 7 Z " fill="#008000" transform="translate(29,114)"/>
<path d="M0 0 C2.72869407 0.03287583 5.2966618 0.56397771 8 1 C8.33 1.99 8.66 2.98 9 4 C9.99 4 10.98 4 12 4 C12.33 5.32 12.66 6.64 13 8 C12.43410156 8.19335938 11.86820313 8.38671875 11.28515625 8.5859375 C10.55167969 8.84632812 9.81820312 9.10671875 9.0625 9.375 C8.33160156 9.63023438 7.60070312 9.88546875 6.84765625 10.1484375 C4.81317884 10.85271413 4.81317884 10.85271413 4 13 C6.64 12.67 9.28 12.34 12 12 C12.33 13.65 12.66 15.3 13 17 C10.69 17.33 8.38 17.66 6 18 C6.33 18.99 6.66 19.98 7 21 C9.97 20.67 12.94 20.34 16 20 C16.33 21.65 16.66 23.3 17 25 C15.10614563 25.50744423 13.20981334 26.00564574 11.3125 26.5 C10.25675781 26.7784375 9.20101562 27.056875 8.11328125 27.34375 C5.28857328 27.9391715 2.87163292 28.12786492 0 28 C-0.93103422 24.80083181 -1.8132918 21.59011866 -2.6875 18.375 C-2.95111328 17.47136719 -3.21472656 16.56773438 -3.48632812 15.63671875 C-5.29549494 8.84614742 -5.29549494 8.84614742 -3.76953125 4.4765625 C-2 2 -2 2 0 0 Z M2 4 C1.67 4.66 1.34 5.32 1 6 C1.99 5.67 2.98 5.34 4 5 C3.34 4.67 2.68 4.34 2 4 Z " fill="#008000" transform="translate(110,15)"/>
<path d="M0 0 C11.6563786 0.6563786 11.6563786 0.6563786 16 5 C16.04346799 6.99952758 16.039992 9.00039988 16 11 C16 11.99 16 12.98 16 14 C15.75 17.5625 15.75 17.5625 15 21 C11.69973281 23.44808552 8.83648077 23.09143477 4.875 22.6875 C3.29332031 22.53861328 3.29332031 22.53861328 1.6796875 22.38671875 C-1 22 -1 22 -3 21 C-2.58169634 13.77875787 -2.04538889 6.95432222 0 0 Z M6 6 C5.67 6.99 5.34 7.98 5 9 C6.32 9 7.64 9 9 9 C8.67 8.01 8.34 7.02 8 6 C7.34 6 6.68 6 6 6 Z M5 14 C4.67 14.99 4.34 15.98 4 17 C5.65 17 7.3 17 9 17 C8.67 16.01 8.34 15.02 8 14 C7.01 14 6.02 14 5 14 Z " fill="#008000" transform="translate(164,16)"/>
<path d="M0 0 C4.98776758 10.63914373 4.98776758 10.63914373 3 17 C0 19 0 19 -4 19 C-4.33 19.99 -4.66 20.98 -5 22 C-8.1875 22.8125 -8.1875 22.8125 -12 23 C-16.43994431 19.77094959 -18.3354629 16.08608559 -20 11 C-19.78857422 8.90527344 -19.78857422 8.90527344 -19 7 C-16.3616798 5.54803855 -13.89702782 4.37327388 -11.125 3.25 C-10.02478516 2.77626953 -10.02478516 2.77626953 -8.90234375 2.29296875 C-3.45282062 0 -3.45282062 0 0 0 Z M-4 8 C-4.66 8.66 -5.32 9.32 -6 10 C-5.67 10.66 -5.34 11.32 -5 12 C-4.01 12 -3.02 12 -2 12 C-2.33 10.68 -2.66 9.36 -3 8 C-3.33 8 -3.66 8 -4 8 Z M-11 11 C-11.66 11.66 -12.32 12.32 -13 13 C-12.67 13.99 -12.34 14.98 -12 16 C-11.01 16 -10.02 16 -9 16 C-9.33 14.35 -9.66 12.7 -10 11 C-10.33 11 -10.66 11 -11 11 Z " fill="#008000" transform="translate(46,187)"/>
<path d="M0 0 C5.91712679 4.15457839 11.01139933 8.77258334 16 14 C14.2421875 17.8828125 14.2421875 17.8828125 12.0625 18.9375 C10 19 10 19 8.25 17.5625 C7.8375 17.046875 7.425 16.53125 7 16 C5.02 16.99 5.02 16.99 3 18 C4.32 19.65 5.64 21.3 7 23 C6.25 24.9375 6.25 24.9375 5 27 C3.1262207 27.79174805 3.1262207 27.79174805 1 28 C-0.66333008 26.98364258 -0.66333008 26.98364258 -2.26953125 25.39453125 C-2.84767578 24.82283203 -3.42582031 24.25113281 -4.02148438 23.66210938 C-4.61251953 23.05173828 -5.20355469 22.44136719 -5.8125 21.8125 C-6.42287109 21.22146484 -7.03324219 20.63042969 -7.66210938 20.02148438 C-8.5196582 19.15426758 -8.5196582 19.15426758 -9.39453125 18.26953125 C-9.91893799 17.73948486 -10.44334473 17.20943848 -10.98364258 16.66333008 C-12 15 -12 15 -11.6628418 12.7956543 C-11.444104 12.20308838 -11.22536621 11.61052246 -11 11 C-9.3125 10.25 -9.3125 10.25 -7 10 C-4.25 11.9375 -4.25 11.9375 -2 14 C-1.01 12.68 -0.02 11.36 1 10 C0.319375 9.4225 -0.36125 8.845 -1.0625 8.25 C-3 6 -3 6 -2.875 3.875 C-2 2 -2 2 0 0 Z " fill="#008000" transform="translate(59,50)"/>
<path d="M0 0 C1.921875 0.37109375 1.921875 0.37109375 4 1 C5.25 3.0625 5.25 3.0625 6 5 C4.68 6.65 3.36 8.3 2 10 C2.99 10.99 3.98 11.98 5 13 C6.65 11.35 8.3 9.7 10 8 C11.9375 8.75 11.9375 8.75 14 10 C14.78466797 11.89404297 14.78466797 11.89404297 15 14 C13.10075646 16.24456055 11.27367162 18.14937576 9.125 20.125 C5.06936454 23.67633023 5.06936454 23.67633023 2 28 C-1.16115776 26.63016497 -1.9927092 26.0109362 -4 23 C-2.68 21.68 -1.36 20.36 0 19 C-0.66 17.68 -1.32 16.36 -2 15 C-5.12197478 16.3089572 -5.12197478 16.3089572 -7 19 C-8.875 18.75 -8.875 18.75 -11 18 C-12.1328125 15.953125 -12.1328125 15.953125 -13 14 C-12.56429687 13.57589844 -12.12859375 13.15179688 -11.6796875 12.71484375 C-7.54991517 8.64764373 -3.71958871 4.44536212 0 0 Z " fill="#008000" transform="translate(232,45)"/>
<path d="M0 0 C2.31 0.33 4.62 0.66 7 1 C8.72556265 4.95378919 9.73206346 8.84585524 10.625 13.0625 C11.01558594 14.87427734 11.01558594 14.87427734 11.4140625 16.72265625 C12 20 12 20 12 24 C9.36 23.67 6.72 23.34 4 23 C3.67 21.68 3.34 20.36 3 19 C1.02 18.67 -0.96 18.34 -3 18 C-3.33 18.99 -3.66 19.98 -4 21 C-6.64 20.67 -9.28 20.34 -12 20 C-8.6973842 12.84433244 -4.45559305 6.48872774 0 0 Z M1 11 C1 11.66 1 12.32 1 13 C1.66 12.67 2.32 12.34 3 12 C2.34 11.67 1.68 11.34 1 11 Z " fill="#008000" transform="translate(127,257)"/>
<path d="M0 0 C7.78808563 0.51648735 15.34925042 1.44876534 23 3 C21.125 7.75 21.125 7.75 20 10 C19.195625 10.12375 18.39125 10.2475 17.5625 10.375 C14.91123318 10.74222547 14.91123318 10.74222547 13.625 12.75 C12.80025989 15.03179631 12.80025989 15.03179631 13.5625 17.5 C14 20 14 20 12.6875 22.3125 C12.130625 22.869375 11.57375 23.42625 11 24 C10.34 24 9.68 24 9 24 C6.70032322 21.43932849 4.7968912 18.55874703 2.8125 15.75 C2.24080078 14.97269531 1.66910156 14.19539062 1.08007812 13.39453125 C0.54447266 12.64042969 0.00886719 11.88632813 -0.54296875 11.109375 C-1.03821045 10.41811523 -1.53345215 9.72685547 -2.04370117 9.01464844 C-3 7 -3 7 -2.77856445 4.93066406 C-2 3 -2 3 0 0 Z M7 8 C7.66 8.66 8.32 9.32 9 10 C9.33 9.34 9.66 8.68 10 8 C9.01 8 8.02 8 7 8 Z " fill="#008000" transform="translate(246,204)"/>
<path d="M0 0 C2 3 2 3 1.97265625 5.19921875 C0.54845063 9.30024457 -1.93842599 12.3890826 -4.5625 15.8125 C-5.08263672 16.50537109 -5.60277344 17.19824219 -6.13867188 17.91210938 C-7.41799154 19.61395663 -8.70796014 21.30778964 -10 23 C-11.953125 22.1484375 -11.953125 22.1484375 -14 21 C-14.99367708 17.85335593 -15 15.33401374 -15 12 C-15.66 11.34 -16.32 10.68 -17 10 C-18.32 10 -19.64 10 -21 10 C-24 5.92857143 -24 5.92857143 -24 3 C-20.94102269 2.2961526 -17.87743931 1.61487171 -14.8125 0.9375 C-13.94818359 0.73833984 -13.08386719 0.53917969 -12.19335938 0.33398438 C-3.75433013 -1.50902201 -3.75433013 -1.50902201 0 0 Z " fill="#008000" transform="translate(58,209)"/>
<path d="M0 0 C2.93496051 2.47841109 4.87219885 4.80829827 7 8 C6.625 11.6875 6.625 11.6875 6 15 C4.68 15.33 3.36 15.66 2 16 C-0.29379749 12.55930376 -1 11.27709699 -1 7 C-3.7019433 7.36512747 -5.58390852 7.69869237 -7.8125 9.3125 C-9.38366227 11.20129649 -9.38366227 11.20129649 -9 15 C-7.88625 14.87625 -7.88625 14.87625 -6.75 14.75 C-4 15 -4 15 -1.6875 16.875 C0 19 0 19 0 21 C-2.43125749 22.58966836 -3.94350049 22.99877175 -6.875 23.0625 C-11.32879858 21.54820848 -13.50994342 18.91639967 -16 15 C-17.125 11.9375 -17.125 11.9375 -17 9 C-13.34327388 1.68654776 -8.22088698 -2.54100143 0 0 Z " fill="#008000" transform="translate(220,34)"/>
<path d="M0 0 C3.37462715 0.54723683 5.08235 1.0549 8 3 C8.328125 5.21484375 8.328125 5.21484375 8.25 7.9375 C8.22421875 8.91203125 8.1984375 9.8865625 8.171875 10.890625 C7.91110474 15.60819608 7.50876656 20.30299445 7 25 C4.69 24.34 2.38 23.68 0 23 C0 21.35 0 19.7 0 18 C-1.98 17.67 -3.96 17.34 -6 17 C-6 17.66 -6 18.32 -6 19 C-8.31 18.67 -10.62 18.34 -13 18 C-13.33 17.01 -13.66 16.02 -14 15 C-13.34 15 -12.68 15 -12 15 C-11.74089844 14.4121875 -11.48179687 13.824375 -11.21484375 13.21875 C-9.91540207 10.84549317 -8.52161971 9.3537907 -6.5625 7.5 C-4.1192676 5.13311862 -1.92112855 2.82518905 0 0 Z M0 10 C1 13 1 13 1 13 Z " fill="#008000" transform="translate(193,23)"/>
<path d="M0 0 C1.65 0.33 3.3 0.66 5 1 C4.49287967 4.71888239 3.88391785 7.73454239 2 11 C4.0245738 9.06745228 5.42105792 7.36841312 7 5 C8.65 5.33 10.3 5.66 12 6 C10.125 11.75 10.125 11.75 9 14 C12.2985139 13.27731765 12.2985139 13.27731765 13.6875 9.9375 C14.120625 8.968125 14.55375 7.99875 15 7 C17.475 7.495 17.475 7.495 20 8 C19.39644592 11.85025879 18.23227397 14.86101159 16.4375 18.3125 C15.98246094 19.19550781 15.52742188 20.07851562 15.05859375 20.98828125 C14.70925781 21.65214844 14.35992187 22.31601563 14 23 C7.54646385 20.94235079 1.2638737 18.57616518 -5 16 C-4.49228528 10.03435204 -2.61407872 5.36190101 0 0 Z " fill="#008000" transform="translate(29,92)"/>
<path d="M0 0 C0.50505263 2.89503383 1.0042022 5.79087953 1.5 8.6875 C1.64308594 9.50412109 1.78617188 10.32074219 1.93359375 11.16210938 C2.61165962 15.14978248 3.19858392 18.93730404 3 23 C-0.38829787 25.05718085 -0.38829787 25.05718085 -2.796875 24.83203125 C-5.8943726 23.66223163 -7.98220771 21.76235664 -10.5 19.625 C-14.33583448 16.36967508 -14.33583448 16.36967508 -18.34375 13.3359375 C-18.8903125 12.89507812 -19.436875 12.45421875 -20 12 C-20 11.34 -20 10.68 -20 10 C-17.95028131 8.75552794 -16.55141102 7.98161963 -14.125 8.0625 C-10.90691172 9.48224483 -8.62834083 11.67033426 -6 14 C-6.11859375 13.24074219 -6.2371875 12.48148438 -6.359375 11.69921875 C-6.48828125 10.70535156 -6.6171875 9.71148437 -6.75 8.6875 C-6.95882812 7.20830078 -6.95882812 7.20830078 -7.171875 5.69921875 C-7 3 -7 3 -5.203125 1.14453125 C-3 0 -3 0 0 0 Z " fill="#008000" transform="translate(92,29)"/>
<path d="M0 0 C1.65 0.66 3.3 1.32 5 2 C3.25192871 7.46737191 1.34205919 12.75824848 -1 18 C-14.6332574 12.81321185 -14.6332574 12.81321185 -21 10 C-20.125 5.25 -20.125 5.25 -19 3 C-13.53262809 4.74807129 -8.24175152 6.65794081 -3 9 C-2.01 6.03 -1.02 3.06 0 0 Z " fill="#008000" transform="translate(271,189)"/>
<path d="M0 0 C2.31 0 4.62 0 7 0 C7 7.26 7 14.52 7 22 C4.69 22 2.38 22 0 22 C0 14.74 0 7.48 0 0 Z " fill="#008000" transform="translate(140,259)"/>
<path d="M0 0 C4.04246089 1.767804 4.85172069 5.04727048 6.4296875 8.9921875 C6.749375 9.72566406 7.0690625 10.45914063 7.3984375 11.21484375 C9.69492787 16.6964664 9.69492787 16.6964664 8.5546875 20.1171875 C6.5746875 20.4471875 4.5946875 20.7771875 2.5546875 21.1171875 C-0.0853125 14.8471875 -2.7253125 8.5771875 -5.4453125 2.1171875 C-2.4453125 0.1171875 -2.4453125 0.1171875 0 0 Z " fill="#008000" transform="translate(99.4453125,25.8828125)"/>
<path d="M0 0 C-0.66498383 4.38889325 -2.18757677 7.9811485 -4 12 C-4.66 12 -5.32 12 -6 12 C-7.34956843 4.51602959 -7.34956843 4.51602959 -5.6875 2.0625 C-2.41176471 0 -2.41176471 0 0 0 Z " fill="#008000" transform="translate(27,93)"/>
<path d="M0 0 C1.65 0.33 3.3 0.66 5 1 C4.67 2.98 4.34 4.96 4 7 C1 8 1 8 -2 7 C-1.34 4.69 -0.68 2.38 0 0 Z " fill="#008000" transform="translate(48,105)"/>
<path d="M0 0 C0.33 1.65 0.66 3.3 1 5 C-1.31 5.33 -3.62 5.66 -6 6 C-6.33 4.35 -6.66 2.7 -7 1 C-4 0 -4 0 0 0 Z " fill="#008000" transform="translate(123,42)"/>
<path d="M0 0 C4.875 1.75 4.875 1.75 6 4 C5.01 5.485 5.01 5.485 4 7 C2.35 6.67 0.7 6.34 -1 6 C-1.33 5.01 -1.66 4.02 -2 3 C-1.34 2.01 -0.68 1.02 0 0 Z " fill="#008000" transform="translate(186,44)"/>
</svg>
